<svg xmlns="http://www.w3.org/2000/svg" width="48" height="48" fill="none" viewBox="0 0 48 48"><rect width="48" height="48" fill="url(#paint0_linear_3673_1301)" rx="24"/><path fill="#121212" d="M22.65 31.11V16.89C22.65 15.54 22.08 15 20.64 15H17.01C15.57 15 15 15.54 15 16.89V31.11C15 32.46 15.57 33 17.01 33H20.64C22.08 33 22.65 32.46 22.65 31.11Z"/><path fill="#121212" d="M33 31.11V16.89C33 15.54 32.43 15 30.99 15H27.36C25.93 15 25.35 15.54 25.35 16.89V31.11C25.35 32.46 25.92 33 27.36 33H30.99C32.43 33 33 32.46 33 31.11Z"/><defs><linearGradient id="paint0_linear_3673_1301" x1="43.5" x2="-49.5" y1="7.5" y2="110" gradientUnits="userSpaceOnUse"><stop stop-color="#fff"/><stop offset="1" stop-color="#fff" stop-opacity="0"/></linearGradient></defs></svg>