<svg xmlns="http://www.w3.org/2000/svg" width="47" height="46" fill="none" viewBox="0 0 47 46"><rect width="40" height="40" x="3.5" y="3" fill="#15171C" rx="20"/><rect width="40" height="40" x="3.5" y="3" stroke="#24272C" stroke-width="6" rx="20"/><path stroke="#71788B" stroke-linecap="round" stroke-linejoin="round" stroke-width="1.667" d="M20.1667 26.3334L23.5001 23.0001M23.5001 23.0001L26.8334 26.3334M23.5001 23.0001V30.5001M30.1667 26.9524C31.1847 26.1118 31.8334 24.84 31.8334 23.4167C31.8334 20.8854 29.7814 18.8334 27.2501 18.8334C27.068 18.8334 26.8976 18.7384 26.8052 18.5815C25.7185 16.7374 23.7121 15.5001 21.4167 15.5001C17.965 15.5001 15.1667 18.2983 15.1667 21.7501C15.1667 23.4718 15.863 25.031 16.9892 26.1613"/></svg>